<?xml version="1.0" encoding="utf-8"?>
<!-- Generator: Adobe Illustrator 27.0.0, SVG Export Plug-In . SVG Version: 6.00 Build 0)  -->
<svg version="1.1" id="Calque_1" xmlns="http://www.w3.org/2000/svg" xmlns:xlink="http://www.w3.org/1999/xlink" x="0px" y="0px"
	 viewBox="0 0 30 30" style="enable-background:new 0 0 30 30;" xml:space="preserve">
<style type="text/css">
	.st0{fill:#00A5AC;}
	.st1{fill:url(#SVGID_1_);}
	.st2{fill:url(#SVGID_00000157992714720758964650000001433737737762547859_);}
	.st3{fill:url(#SVGID_00000107550806441936753150000017422829526690431649_);}
</style>
<g>
	<path class="st0" d="M4.43,15.91v-1.48c0-7.08,2.3-9.49,9.76-9.49h1.34c7.27,0,9.75,2.42,9.75,9.49v1.48
		c0,7.26-2.48,9.49-9.75,9.49h-1.34C6.91,25.4,4.43,23.16,4.43,15.91z"/>
	
		<linearGradient id="SVGID_1_" gradientUnits="userSpaceOnUse" x1="4.6665" y1="7.1638" x2="35.2946" y2="39.1183" gradientTransform="matrix(1 0 0 -1 0 32.96)">
		<stop  offset="0.1024" style="stop-color:#E73B68;stop-opacity:0"/>
		<stop  offset="0.1202" style="stop-color:#C13561;stop-opacity:0.0612"/>
		<stop  offset="0.1492" style="stop-color:#882D56;stop-opacity:0.1606"/>
		<stop  offset="0.176" style="stop-color:#5C264E;stop-opacity:0.2526"/>
		<stop  offset="0.1998" style="stop-color:#3C2248;stop-opacity:0.3345"/>
		<stop  offset="0.2198" style="stop-color:#281F44;stop-opacity:0.4031"/>
		<stop  offset="0.2335" style="stop-color:#211E43;stop-opacity:0.45"/>
	</linearGradient>
	<path class="st1" d="M4.43,15.91v-1.48c0-7.08,2.3-9.49,9.76-9.49h1.34c7.27,0,9.75,2.42,9.75,9.49v1.48
		c0,7.26-2.48,9.49-9.75,9.49h-1.34C6.91,25.4,4.43,23.16,4.43,15.91z"/>
	<g>
		
			<linearGradient id="SVGID_00000013190516424839783730000010842418857711789714_" gradientUnits="userSpaceOnUse" x1="33.9019" y1="33.4775" x2="1.7717" y2="7.0295" gradientTransform="matrix(1 0 0 -1 0 32.96)">
			<stop  offset="0" style="stop-color:#E73666"/>
			<stop  offset="0.2016" style="stop-color:#E73666"/>
			<stop  offset="0.3481" style="stop-color:#C72B5D"/>
			<stop  offset="0.5176" style="stop-color:#A92054"/>
			<stop  offset="0.6849" style="stop-color:#94184E"/>
			<stop  offset="0.8476" style="stop-color:#87144A"/>
			<stop  offset="1" style="stop-color:#831249"/>
			<stop  offset="1" style="stop-color:#86134A"/>
			<stop  offset="1" style="stop-color:#8F174D"/>
			<stop  offset="1" style="stop-color:#9F1D52"/>
			<stop  offset="1" style="stop-color:#B52658"/>
			<stop  offset="1" style="stop-color:#D13261"/>
			<stop  offset="1" style="stop-color:#E73B68"/>
		</linearGradient>
		<path style="fill:url(#SVGID_00000013190516424839783730000010842418857711789714_);" d="M28.48,16.14v-1.94
			c0-9.26-3.25-12.41-12.75-12.41h-1.75c-8.03,0-11.49,2.15-12.45,8.07l18.89,18.38C26.33,27.23,28.48,23.85,28.48,16.14z"/>
	</g>
	
		<linearGradient id="SVGID_00000046331823644248460870000008311073979227182257_" gradientUnits="userSpaceOnUse" x1="32.5168" y1="37.6745" x2="5.979" y2="8.4287" gradientTransform="matrix(1 0 0 -1 0 32.96)">
		<stop  offset="0.6104" style="stop-color:#E73B68"/>
		<stop  offset="0.7203" style="stop-color:#B3335E"/>
		<stop  offset="0.9708" style="stop-color:#312046"/>
		<stop  offset="1" style="stop-color:#211E43"/>
	</linearGradient>
	<path style="fill:url(#SVGID_00000046331823644248460870000008311073979227182257_);" d="M20.41,28.22
		c0.24-1.32,0.33-2.83,0.33-4.56v-1.7c0-9.25-3.01-12.41-12.76-12.41h-2c-1.68,0-3.16,0.09-4.47,0.3L20.41,28.22z"/>
</g>
</svg>
