<svg width="128" height="80" viewBox="0 0 128 80" fill="none" xmlns="http://www.w3.org/2000/svg">
<g id="Logo Unrevealed Light">
<path id="Vector" fill-rule="evenodd" clip-rule="evenodd" d="M37.2506 10.0939C30.7109 18.4979 26.8161 29.0616 26.8161 40.5351C26.8161 53.09 31.4798 64.5558 39.1694 73.2939C36.9189 73.7925 34.5798 74.0555 32.1794 74.0555C14.4072 74.0555 0 59.648 0 41.876C0 24.1039 14.4072 9.69666 32.1794 9.69666C33.9049 9.69666 35.5987 9.83244 37.2506 10.0939Z" fill="white"/>
<path id="Vector_2" d="M84.0241 1.65112H84.024C62.5493 1.65112 45.1406 19.0598 45.1406 40.5345V40.5346C45.1406 62.0094 62.5493 79.4181 84.024 79.4181H84.0241C105.499 79.4181 122.908 62.0094 122.908 40.5346V40.5345C122.908 19.0598 105.499 1.65112 84.0241 1.65112Z" fill="#84B0FF"/>
</g>
</svg>
