<?xml version="1.0" encoding="utf-8"?>
<!-- Generator: Adobe Illustrator 27.0.0, SVG Export Plug-In . SVG Version: 6.00 Build 0)  -->
<svg version="1.1" id="Calque_1" xmlns="http://www.w3.org/2000/svg" xmlns:xlink="http://www.w3.org/1999/xlink" x="0px" y="0px"
	 viewBox="0 0 30.51 30.77" style="enable-background:new 0 0 30.51 30.77;" xml:space="preserve">
<style type="text/css">
	.st0{fill:#00A5AC;}
	.st1{fill:url(#SVGID_1_);}
	.st2{fill:url(#SVGID_00000041267702582232572720000010152918164205984180_);}
	.st3{fill:url(#SVGID_00000009550244241762045480000016876767048121505466_);}
</style>
<g>
	<path class="st0" d="M3.29,16.44v-1.72c0-8.23,2.6-11.04,11.04-11.04h1.51c8.22,0,11.03,2.81,11.03,11.04v1.72
		c0,8.44-2.81,11.04-11.03,11.04h-1.51C6.1,27.48,3.29,24.88,3.29,16.44z"/>
	
		<linearGradient id="SVGID_1_" gradientUnits="userSpaceOnUse" x1="3.396" y1="5.9492" x2="38.5486" y2="42.6241" gradientTransform="matrix(1 0 0 -1 0 33.726)">
		<stop  offset="0.1024" style="stop-color:#E73B68;stop-opacity:0"/>
		<stop  offset="0.1202" style="stop-color:#C13561;stop-opacity:0.0612"/>
		<stop  offset="0.1492" style="stop-color:#882D56;stop-opacity:0.1606"/>
		<stop  offset="0.176" style="stop-color:#5C264E;stop-opacity:0.2526"/>
		<stop  offset="0.1998" style="stop-color:#3C2248;stop-opacity:0.3345"/>
		<stop  offset="0.2198" style="stop-color:#281F44;stop-opacity:0.4031"/>
		<stop  offset="0.2335" style="stop-color:#211E43;stop-opacity:0.45"/>
	</linearGradient>
	<path class="st1" d="M3.29,16.44v-1.72c0-8.23,2.6-11.04,11.04-11.04h1.51c8.22,0,11.03,2.81,11.03,11.04v1.72
		c0,8.44-2.81,11.04-11.03,11.04h-1.51C6.1,27.48,3.29,24.88,3.29,16.44z"/>
	<g>
		
			<linearGradient id="SVGID_00000067206781618805388530000007612868461611046028_" gradientUnits="userSpaceOnUse" x1="36.8316" y1="36.0525" x2="0.334" y2="6.0094" gradientTransform="matrix(1 0 0 -1 0 33.726)">
			<stop  offset="0" style="stop-color:#E73666"/>
			<stop  offset="0.2016" style="stop-color:#E73666"/>
			<stop  offset="0.3481" style="stop-color:#C72B5D"/>
			<stop  offset="0.5176" style="stop-color:#A92054"/>
			<stop  offset="0.6849" style="stop-color:#94184E"/>
			<stop  offset="0.8476" style="stop-color:#87144A"/>
			<stop  offset="1" style="stop-color:#831249"/>
			<stop  offset="1" style="stop-color:#86134A"/>
			<stop  offset="1" style="stop-color:#8F174D"/>
			<stop  offset="1" style="stop-color:#9F1D52"/>
			<stop  offset="1" style="stop-color:#B52658"/>
			<stop  offset="1" style="stop-color:#D13261"/>
			<stop  offset="1" style="stop-color:#E73B68"/>
		</linearGradient>
		<path style="fill:url(#SVGID_00000067206781618805388530000007612868461611046028_);" d="M30.51,16.7v-2.26
			C30.51,3.67,26.83,0,16.08,0h-1.98C5,0,1.1,2.5,0,9.39l21.38,21.38C28.08,29.61,30.51,25.68,30.51,16.7z"/>
	</g>
	
		<linearGradient id="SVGID_00000016769698067186184360000003577901903809046207_" gradientUnits="userSpaceOnUse" x1="35.7432" y1="41.2597" x2="4.7265" y2="7.0781" gradientTransform="matrix(1 0 0 -1 0 33.726)">
		<stop  offset="0.6104" style="stop-color:#E73B68"/>
		<stop  offset="0.7203" style="stop-color:#B3335E"/>
		<stop  offset="0.9708" style="stop-color:#312046"/>
		<stop  offset="1" style="stop-color:#211E43"/>
	</linearGradient>
	<path style="fill:url(#SVGID_00000016769698067186184360000003577901903809046207_);" d="M21.38,30.77
		c0.27-1.53,0.38-3.29,0.38-5.3v-1.98c0-10.76-3.41-14.44-14.44-14.44H5.05c-1.9,0-3.58,0.11-5.05,0.35L21.38,30.77z"/>
</g>
</svg>
