<?xml version="1.0" encoding="utf-8"?>
<!-- Generator: Adobe Illustrator 27.0.0, SVG Export Plug-In . SVG Version: 6.00 Build 0)  -->
<svg version="1.1" id="Calque_1" xmlns="http://www.w3.org/2000/svg" xmlns:xlink="http://www.w3.org/1999/xlink" x="0px" y="0px"
	 viewBox="0 0 142 30.77" style="enable-background:new 0 0 142 30.77;" xml:space="preserve">
<style type="text/css">
	.st0{fill:#FFFFFF;}
	.st1{fill:#00A5AC;}
	.st2{fill:url(#SVGID_1_);}
	.st3{fill:url(#SVGID_00000141429619722463157990000003914357989643898762_);}
	.st4{fill:url(#SVGID_00000088132834632759591700000004240213503370556575_);}
</style>
<g>
	<path class="st0" d="M37.09,18.69v-6.96c0-0.41,0.14-0.54,0.5-0.54h1.04c0.36,0,0.47,0.14,0.47,0.54v6.89
		c0,1.78,0.72,2.68,2.41,2.68c0.9,0,1.64-0.14,2.14-0.38c0.23-0.11,0.27-0.25,0.27-0.52v-8.67c0-0.41,0.14-0.54,0.5-0.54h1.04
		c0.36,0,0.47,0.14,0.47,0.54v9.42c0,0.7-0.16,0.97-0.77,1.24c-0.79,0.36-1.98,0.77-3.92,0.77C38.4,23.14,37.09,21.48,37.09,18.69z"
		/>
	<path class="st0" d="M48.88,22.26v-9.39c0-0.7,0.14-0.97,0.79-1.27c0.79-0.36,2-0.77,3.9-0.77c2.86,0,4.15,1.66,4.15,4.46v6.96
		c0,0.41-0.11,0.54-0.5,0.54H56.2c-0.38,0-0.5-0.14-0.5-0.54v-6.9c0-1.78-0.84-2.7-2.41-2.7c-0.86,0-1.68,0.23-2.16,0.43
		c-0.2,0.11-0.25,0.23-0.25,0.41v8.76c0,0.41-0.11,0.54-0.5,0.54h-1.02C49.02,22.8,48.88,22.67,48.88,22.26z"/>
	<path class="st0" d="M60.61,22.26v-9.19c0-0.7,0.14-1.02,0.75-1.29c0.79-0.32,1.91-0.61,3.67-0.61h1c0.34,0,0.47,0.14,0.47,0.48
		v0.81c0,0.41-0.14,0.54-0.47,0.54h-1.08c-0.9,0-1.62,0.16-2.02,0.36c-0.25,0.14-0.29,0.29-0.29,0.5v8.4c0,0.41-0.11,0.54-0.45,0.54
		H61.1C60.74,22.8,60.61,22.67,60.61,22.26z"/>
	<path class="st0" d="M67.46,18.46v-2.79c0-3.04,1.62-4.82,4.59-4.82c3.11,0,4.54,2,4.54,4.66v1.31c0,0.48-0.2,0.79-0.77,0.79h-6.38
		v1.08c0,1.71,0.86,2.72,2.54,2.72c1.45,0,2.16-0.61,2.63-1.57c0.23-0.36,0.38-0.43,0.77-0.23l0.63,0.36
		c0.36,0.2,0.45,0.47,0.23,0.86c-0.7,1.38-2.05,2.32-4.26,2.32C68.84,23.14,67.46,21.21,67.46,18.46z M74.65,16.05v-0.66
		c0-1.78-0.81-2.84-2.59-2.84c-1.75,0-2.59,1.06-2.59,2.84v0.66H74.65z"/>
	<path class="st0" d="M81.51,22.35L77.8,11.81c-0.16-0.47-0.09-0.63,0.38-0.63h0.86c0.57,0,0.7,0.11,0.84,0.54l2.23,6.53
		c0.23,0.72,0.45,1.69,0.61,2.32h0.07c0.16-0.63,0.38-1.59,0.59-2.32l2.2-6.53c0.14-0.43,0.23-0.54,0.81-0.54h0.86
		c0.47,0,0.56,0.14,0.41,0.63l-3.76,10.54c-0.14,0.38-0.32,0.5-0.68,0.5h-1.02C81.82,22.85,81.62,22.73,81.51,22.35z"/>
	<path class="st0" d="M88.91,18.46v-2.79c0-3.04,1.62-4.82,4.59-4.82c3.11,0,4.55,2,4.55,4.66v1.31c0,0.48-0.2,0.79-0.77,0.79h-6.38
		v1.08c0,1.71,0.86,2.72,2.54,2.72c1.45,0,2.16-0.61,2.63-1.57c0.23-0.36,0.38-0.43,0.77-0.23l0.63,0.36
		c0.36,0.2,0.45,0.47,0.23,0.86c-0.7,1.38-2.05,2.32-4.26,2.32C90.28,23.14,88.91,21.21,88.91,18.46z M96.1,16.05v-0.66
		c0-1.78-0.81-2.84-2.59-2.84c-1.75,0-2.59,1.06-2.59,2.84v0.66H96.1z"/>
	<path class="st0" d="M99.93,19.56c0-2.45,1.36-3.52,4.52-3.52c0.88,0,1.89,0.14,2.2,0.16v-1.08c0-1.82-0.66-2.5-2.25-2.5
		c-1.22,0-1.98,0.52-2.43,1.43c-0.18,0.34-0.36,0.41-0.7,0.25l-0.63-0.29c-0.36-0.16-0.47-0.36-0.27-0.77
		c0.7-1.47,1.96-2.39,4.04-2.39c3.13,0,4.24,1.6,4.24,4.35v6.08c0,0.79-0.16,1.02-0.72,1.29c-0.75,0.36-1.93,0.59-3.52,0.59
		C101.27,23.14,99.93,22.02,99.93,19.56z M104.29,21.48c0.93,0,1.64-0.11,2.09-0.29c0.25-0.09,0.29-0.18,0.29-0.5v-2.88
		c-0.41-0.05-1.45-0.16-2.32-0.16c-1.66,0-2.41,0.61-2.41,1.91S102.66,21.48,104.29,21.48z"/>
	<path class="st0" d="M111.57,22.26V6.68c0-0.41,0.09-0.54,0.41-0.54h1.22c0.29,0,0.38,0.14,0.38,0.54v15.59
		c0,0.41-0.09,0.54-0.38,0.54h-1.22C111.66,22.8,111.57,22.67,111.57,22.26z"/>
	<path class="st0" d="M116.27,18.46v-2.79c0-3.04,1.62-4.82,4.59-4.82c3.11,0,4.55,2,4.55,4.66v1.31c0,0.48-0.2,0.79-0.77,0.79
		h-6.38v1.08c0,1.71,0.86,2.72,2.54,2.72c1.45,0,2.16-0.61,2.63-1.57c0.23-0.36,0.38-0.43,0.77-0.23l0.63,0.36
		c0.36,0.2,0.45,0.47,0.23,0.86c-0.7,1.38-2.05,2.32-4.26,2.32C117.64,23.14,116.27,21.21,116.27,18.46z M123.45,16.05v-0.66
		c0-1.78-0.81-2.84-2.59-2.84c-1.75,0-2.59,1.06-2.59,2.84v0.66H123.45z"/>
	<path class="st0" d="M127.56,18.46v-3.15c0-2.86,1.38-4.46,4.28-4.46c1.15,0,2.14,0.36,2.63,0.57V6.68c0-0.41,0.11-0.54,0.47-0.54
		h1.04c0.36,0,0.5,0.14,0.5,0.54v14.53c0,0.72-0.14,0.9-0.79,1.24c-0.72,0.34-1.98,0.7-3.54,0.7
		C129.02,23.14,127.56,21.48,127.56,18.46z M132.22,21.3c0.75,0,1.53-0.16,1.98-0.36c0.23-0.11,0.27-0.2,0.27-0.43v-7.26
		c-0.41-0.2-1.33-0.57-2.39-0.57c-1.71,0-2.52,0.93-2.52,2.68v3.02C129.54,20.35,130.35,21.3,132.22,21.3z"/>
	<path class="st1" d="M139.13,21.62v-0.21c0-1,0.32-1.35,1.35-1.35h0.18c1,0,1.35,0.34,1.35,1.35v0.21c0,1.03-0.34,1.35-1.35,1.35
		h-0.18C139.47,22.96,139.13,22.64,139.13,21.62z"/>
	<g>
		<path class="st1" d="M3.29,16.44v-1.72c0-8.23,2.6-11.04,11.04-11.04h1.51c8.22,0,11.03,2.81,11.03,11.04v1.72
			c0,8.44-2.81,11.04-11.03,11.04h-1.51C6.1,27.48,3.29,24.88,3.29,16.44z"/>
		
			<linearGradient id="SVGID_1_" gradientUnits="userSpaceOnUse" x1="3.396" y1="5.9492" x2="38.5486" y2="42.6241" gradientTransform="matrix(1 0 0 -1 0 33.726)">
			<stop  offset="0.1024" style="stop-color:#E73B68;stop-opacity:0"/>
			<stop  offset="0.1202" style="stop-color:#C13561;stop-opacity:0.0612"/>
			<stop  offset="0.1492" style="stop-color:#882D56;stop-opacity:0.1606"/>
			<stop  offset="0.176" style="stop-color:#5C264E;stop-opacity:0.2526"/>
			<stop  offset="0.1998" style="stop-color:#3C2248;stop-opacity:0.3345"/>
			<stop  offset="0.2198" style="stop-color:#281F44;stop-opacity:0.4031"/>
			<stop  offset="0.2335" style="stop-color:#211E43;stop-opacity:0.45"/>
		</linearGradient>
		<path class="st2" d="M3.29,16.44v-1.72c0-8.23,2.6-11.04,11.04-11.04h1.51c8.22,0,11.03,2.81,11.03,11.04v1.72
			c0,8.44-2.81,11.04-11.03,11.04h-1.51C6.1,27.48,3.29,24.88,3.29,16.44z"/>
		<g>
			
				<linearGradient id="SVGID_00000033343136654657756010000016355105911385301671_" gradientUnits="userSpaceOnUse" x1="36.8316" y1="36.0525" x2="0.334" y2="6.0094" gradientTransform="matrix(1 0 0 -1 0 33.726)">
				<stop  offset="0" style="stop-color:#E73666"/>
				<stop  offset="0.2016" style="stop-color:#E73666"/>
				<stop  offset="0.3481" style="stop-color:#C72B5D"/>
				<stop  offset="0.5176" style="stop-color:#A92054"/>
				<stop  offset="0.6849" style="stop-color:#94184E"/>
				<stop  offset="0.8476" style="stop-color:#87144A"/>
				<stop  offset="1" style="stop-color:#831249"/>
				<stop  offset="1" style="stop-color:#86134A"/>
				<stop  offset="1" style="stop-color:#8F174D"/>
				<stop  offset="1" style="stop-color:#9F1D52"/>
				<stop  offset="1" style="stop-color:#B52658"/>
				<stop  offset="1" style="stop-color:#D13261"/>
				<stop  offset="1" style="stop-color:#E73B68"/>
			</linearGradient>
			<path style="fill:url(#SVGID_00000033343136654657756010000016355105911385301671_);" d="M30.51,16.7v-2.26
				C30.51,3.67,26.83,0,16.08,0h-1.98C5,0,1.1,2.5,0,9.39l21.38,21.38C28.08,29.61,30.51,25.68,30.51,16.7z"/>
		</g>
		
			<linearGradient id="SVGID_00000020398038050194883460000003526043086816102065_" gradientUnits="userSpaceOnUse" x1="35.7432" y1="41.2597" x2="4.7265" y2="7.0781" gradientTransform="matrix(1 0 0 -1 0 33.726)">
			<stop  offset="0.6104" style="stop-color:#E73B68"/>
			<stop  offset="0.7203" style="stop-color:#B3335E"/>
			<stop  offset="0.9708" style="stop-color:#312046"/>
			<stop  offset="1" style="stop-color:#211E43"/>
		</linearGradient>
		<path style="fill:url(#SVGID_00000020398038050194883460000003526043086816102065_);" d="M21.38,30.77
			c0.27-1.53,0.38-3.29,0.38-5.3v-1.98c0-10.76-3.41-14.44-14.44-14.44H5.05c-1.9,0-3.58,0.11-5.05,0.35L21.38,30.77z"/>
	</g>
</g>
</svg>
