<svg width="301" height="32" viewBox="0 0 301 32" fill="none" xmlns="http://www.w3.org/2000/svg">
  <path
    d="M81.8604 0.000152588H89.4065V20.3526C89.4065 22.7047 88.8515 24.7538 87.7415 26.4999C86.6315 28.2357 85.0835 29.5813 83.0977 30.5365C81.1119 31.4815 78.8053 31.9539 76.1779 31.9539C73.52 31.9539 71.1981 31.4815 69.2123 30.5365C67.2265 29.5813 65.6837 28.2357 64.5838 26.4999C63.484 24.7538 62.9341 22.7047 62.9341 20.3526V0.000152588H70.4954V19.6901C70.4954 20.7788 70.7297 21.7495 71.1981 22.602C71.6768 23.4545 72.3438 24.1221 73.1992 24.6049C74.0546 25.0876 75.0475 25.329 76.1779 25.329C77.3083 25.329 78.2961 25.0876 79.1414 24.6049C79.9968 24.1221 80.6638 23.4545 81.1425 22.602C81.6211 21.7495 81.8604 20.7788 81.8604 19.6901V0.000152588Z"
    fill="#141820" />
  <path
    d="M101.615 18.057V31.5534H94.1457V7.88845H101.249V12.2332H101.509C102.028 10.7849 102.914 9.64997 104.166 8.82827C105.419 7.9963 106.911 7.58032 108.642 7.58032C110.292 7.58032 111.723 7.95522 112.935 8.70501C114.157 9.44454 115.104 10.4819 115.776 11.8172C116.458 13.1422 116.794 14.6931 116.784 16.4701V31.5534H109.314V17.9491C109.324 16.6344 108.993 15.6073 108.321 14.8678C107.659 14.1282 106.738 13.7585 105.557 13.7585C104.772 13.7585 104.08 13.9331 103.479 14.2823C102.888 14.6212 102.43 15.1091 102.104 15.7459C101.789 16.3828 101.626 17.1531 101.615 18.057Z"
    fill="#141820" />
  <path
    d="M121.409 31.5534V7.88845H128.664V12.2024H128.909C129.337 10.6411 130.034 9.48049 131.002 8.72042C131.969 7.95008 133.094 7.56491 134.378 7.56491C134.724 7.56491 135.08 7.59059 135.447 7.64194C135.813 7.68303 136.155 7.74979 136.47 7.84223V14.3901C136.114 14.2669 135.645 14.1693 135.065 14.0974C134.495 14.0255 133.985 13.9896 133.537 13.9896C132.651 13.9896 131.852 14.1898 131.139 14.5904C130.436 14.9807 129.881 15.5302 129.474 16.239C129.077 16.9374 128.878 17.7591 128.878 18.7041V31.5534H121.409Z"
    fill="#141820" />
  <path
    d="M149.264 32.0002C146.809 32.0002 144.691 31.5123 142.909 30.5365C141.137 29.5505 139.772 28.1484 138.815 26.3304C137.868 24.5022 137.394 22.3298 137.394 19.8133C137.394 17.3688 137.873 15.2324 138.83 13.4041C139.788 11.5656 141.137 10.1379 142.878 9.121C144.62 8.09388 146.672 7.58032 149.034 7.58032C150.704 7.58032 152.232 7.84223 153.617 8.36606C155.002 8.8899 156.199 9.66538 157.207 10.6925C158.215 11.7196 158.999 12.9881 159.559 14.498C160.119 15.9976 160.399 17.718 160.399 19.6593V21.5389H140.007V17.1634H153.449C153.439 16.3622 153.25 15.6484 152.884 15.0218C152.517 14.3953 152.013 13.9074 151.372 13.5582C150.74 13.1987 150.012 13.0189 149.187 13.0189C148.352 13.0189 147.604 13.2089 146.942 13.589C146.28 13.9587 145.755 14.4672 145.368 15.1143C144.981 15.7511 144.778 16.4752 144.757 17.2866V21.7392C144.757 22.7047 144.946 23.5521 145.322 24.2813C145.699 25.0003 146.234 25.5601 146.926 25.9607C147.619 26.3613 148.444 26.5615 149.401 26.5615C150.063 26.5615 150.664 26.4691 151.203 26.2842C151.743 26.0993 152.207 25.8271 152.594 25.4677C152.981 25.1082 153.271 24.6665 153.464 24.1427L160.323 24.343C160.038 25.8939 159.412 27.2446 158.444 28.395C157.487 29.5351 156.229 30.4235 154.671 31.0603C153.113 31.6869 151.31 32.0002 149.264 32.0002Z"
    fill="#141820" />
  <path
    d="M186.345 7.88845L178.295 31.5534H169.74L161.705 7.88845H169.572L173.895 24.1889H174.14L178.478 7.88845H186.345Z"
    fill="#141820" />
  <path
    d="M199.421 32.0002C196.966 32.0002 194.848 31.5123 193.066 30.5365C191.294 29.5505 189.929 28.1484 188.972 26.3304C188.025 24.5022 187.552 22.3298 187.552 19.8133C187.552 17.3688 188.03 15.2324 188.987 13.4041C189.945 11.5656 191.294 10.1379 193.035 9.121C194.777 8.09388 196.829 7.58032 199.191 7.58032C200.862 7.58032 202.389 7.84223 203.774 8.36606C205.159 8.8899 206.356 9.66538 207.364 10.6925C208.372 11.7196 209.156 12.9881 209.716 14.498C210.276 15.9976 210.556 17.718 210.556 19.6593V21.5389H190.164V17.1634H203.606C203.596 16.3622 203.407 15.6484 203.041 15.0218C202.674 14.3953 202.17 13.9074 201.529 13.5582C200.897 13.1987 200.169 13.0189 199.344 13.0189C198.509 13.0189 197.761 13.2089 197.099 13.589C196.437 13.9587 195.912 14.4672 195.525 15.1143C195.138 15.7511 194.935 16.4752 194.914 17.2866V21.7392C194.914 22.7047 195.103 23.5521 195.479 24.2813C195.856 25.0003 196.391 25.5601 197.083 25.9607C197.776 26.3613 198.601 26.5615 199.558 26.5615C200.22 26.5615 200.821 26.4691 201.361 26.2842C201.9 26.0993 202.364 25.8271 202.751 25.4677C203.138 25.1082 203.428 24.6665 203.621 24.1427L210.48 24.343C210.195 25.8939 209.569 27.2446 208.601 28.395C207.644 29.5351 206.386 30.4235 204.828 31.0603C203.27 31.6869 201.467 32.0002 199.421 32.0002Z"
    fill="#141820" />
  <path
    d="M220.986 31.9539C219.489 31.9539 218.16 31.7023 216.999 31.199C215.848 30.6854 214.937 29.9151 214.265 28.888C213.603 27.8506 213.272 26.5513 213.272 24.99C213.272 23.6753 213.501 22.566 213.959 21.6622C214.417 20.7583 215.049 20.0239 215.853 19.459C216.658 18.8941 217.584 18.4678 218.633 18.1802C219.682 17.8824 220.802 17.6821 221.994 17.5794C223.328 17.4561 224.402 17.3277 225.217 17.1942C226.032 17.0504 226.622 16.8501 226.989 16.5933C227.366 16.3263 227.554 15.9514 227.554 15.4686V15.3916C227.554 14.6007 227.284 13.9896 226.745 13.5582C226.205 13.1268 225.477 12.9111 224.56 12.9111C223.572 12.9111 222.778 13.1268 222.177 13.5582C221.576 13.9896 221.194 14.5853 221.032 15.3454L214.142 15.0989C214.346 13.6609 214.87 12.377 215.716 11.2471C216.571 10.107 217.742 9.21344 219.229 8.56635C220.726 7.909 222.523 7.58032 224.621 7.58032C226.118 7.58032 227.498 7.76006 228.761 8.11956C230.024 8.46878 231.124 8.98234 232.06 9.66024C232.997 10.3279 233.72 11.1496 234.23 12.1253C234.749 13.1011 235.009 14.2155 235.009 15.4686V31.5534H227.982V28.2563H227.799C227.381 29.0574 226.846 29.7353 226.195 30.29C225.553 30.8446 224.794 31.2606 223.919 31.5379C223.053 31.8153 222.075 31.9539 220.986 31.9539ZM223.292 27.0237C224.097 27.0237 224.82 26.8594 225.461 26.5307C226.113 26.202 226.633 25.7501 227.02 25.1749C227.407 24.5895 227.6 23.9116 227.6 23.1412V20.8918C227.386 21.0048 227.126 21.1075 226.821 21.2C226.526 21.2924 226.2 21.3797 225.843 21.4619C225.487 21.544 225.12 21.6159 224.743 21.6776C224.367 21.7392 224.005 21.7957 223.659 21.847C222.956 21.96 222.355 22.1346 221.856 22.3709C221.368 22.6071 220.991 22.9153 220.726 23.2953C220.471 23.6651 220.344 24.1067 220.344 24.6203C220.344 25.4009 220.619 25.9966 221.169 26.4075C221.729 26.8183 222.437 27.0237 223.292 27.0237Z"
    fill="#141820" />
  <path d="M247.046 0.000152588V31.5534H239.576V0.000152588H247.046Z" fill="#141820" />
  <path
    d="M262.768 32.0002C260.314 32.0002 258.196 31.5123 256.413 30.5365C254.641 29.5505 253.277 28.1484 252.32 26.3304C251.372 24.5022 250.899 22.3298 250.899 19.8133C250.899 17.3688 251.378 15.2324 252.335 13.4041C253.292 11.5656 254.641 10.1379 256.383 9.121C258.124 8.09388 260.176 7.58032 262.539 7.58032C264.209 7.58032 265.737 7.84223 267.122 8.36606C268.506 8.8899 269.703 9.66538 270.711 10.6925C271.719 11.7196 272.504 12.9881 273.064 14.498C273.624 15.9976 273.904 17.718 273.904 19.6593V21.5389H253.511V17.1634H266.953C266.943 16.3622 266.755 15.6484 266.388 15.0218C266.022 14.3953 265.518 13.9074 264.876 13.5582C264.245 13.1987 263.516 13.0189 262.692 13.0189C261.857 13.0189 261.108 13.2089 260.446 13.589C259.784 13.9587 259.26 14.4672 258.873 15.1143C258.486 15.7511 258.282 16.4752 258.262 17.2866V21.7392C258.262 22.7047 258.45 23.5521 258.827 24.2813C259.204 25.0003 259.738 25.5601 260.431 25.9607C261.123 26.3613 261.948 26.5615 262.905 26.5615C263.567 26.5615 264.168 26.4691 264.708 26.2842C265.248 26.0993 265.711 25.8271 266.098 25.4677C266.485 25.1082 266.775 24.6665 266.969 24.1427L273.827 24.343C273.542 25.8939 272.916 27.2446 271.949 28.395C270.991 29.5351 269.734 30.4235 268.176 31.0603C266.617 31.6869 264.815 32.0002 262.768 32.0002Z"
    fill="#141820" />
  <path
    d="M286.288 31.8923C284.557 31.8923 282.984 31.4404 281.568 30.5365C280.153 29.6326 279.022 28.2768 278.177 26.4691C277.332 24.6614 276.909 22.4171 276.909 19.7363C276.909 16.9528 277.347 14.6623 278.223 12.8649C279.099 11.0674 280.244 9.73727 281.66 8.87449C283.086 8.01171 284.618 7.58032 286.258 7.58032C287.49 7.58032 288.544 7.79601 289.42 8.2274C290.296 8.64852 291.019 9.1929 291.589 9.86053C292.159 10.5282 292.592 11.2215 292.887 11.9405H293.04V0.000152588H300.51V31.5534H293.117V27.7171H292.887C292.572 28.4463 292.124 29.1293 291.543 29.7662C290.963 30.403 290.235 30.9165 289.359 31.3068C288.493 31.6972 287.47 31.8923 286.288 31.8923ZM288.885 26.0223C289.792 26.0223 290.566 25.7655 291.207 25.252C291.849 24.7281 292.343 23.9937 292.689 23.0488C293.035 22.1038 293.208 20.9945 293.208 19.7209C293.208 18.4267 293.035 17.3123 292.689 16.3776C292.353 15.4429 291.859 14.724 291.207 14.2207C290.566 13.7174 289.792 13.4657 288.885 13.4657C287.959 13.4657 287.174 13.7225 286.533 14.2361C285.891 14.7496 285.402 15.4738 285.066 16.4084C284.741 17.3431 284.578 18.4473 284.578 19.7209C284.578 20.9945 284.746 22.1038 285.082 23.0488C285.418 23.9937 285.901 24.7281 286.533 25.252C287.174 25.7655 287.959 26.0223 288.885 26.0223Z"
    fill="#141820" />
  <path fill-rule="evenodd" clip-rule="evenodd"
    d="M13.9685 3.78498C11.5161 6.93648 10.0556 10.8979 10.0556 15.2004C10.0556 19.9085 11.8045 24.2082 14.6881 27.4851C13.8441 27.672 12.967 27.7706 12.0668 27.7706C5.40223 27.7706 -0.000488281 22.3679 -0.000488281 15.7033C-0.000488281 9.0387 5.40223 3.63599 12.0668 3.63599C12.7139 3.63599 13.349 3.68692 13.9685 3.78498Z"
    fill="#141820" />
  <rect x="16.927" y="0.618958" width="29.1626" height="29.1626" rx="14.5813" fill="#84B0FF" />
</svg>
