<svg width="301" height="32" viewBox="0 0 301 32" fill="none" xmlns="http://www.w3.org/2000/svg">
  <path
    d="M81.8604 0.000183105H89.4065V20.3526C89.4065 22.7047 88.8515 24.7538 87.7415 26.4999C86.6315 28.2358 85.0835 29.5813 83.0977 30.5365C81.1119 31.4815 78.8053 31.954 76.1779 31.954C73.52 31.954 71.1981 31.4815 69.2123 30.5365C67.2265 29.5813 65.6837 28.2358 64.5838 26.4999C63.484 24.7538 62.9341 22.7047 62.9341 20.3526V0.000183105H70.4954V19.6901C70.4954 20.7789 70.7297 21.7495 71.1981 22.602C71.6768 23.4545 72.3438 24.1222 73.1992 24.6049C74.0546 25.0877 75.0475 25.329 76.1779 25.329C77.3083 25.329 78.2961 25.0877 79.1414 24.6049C79.9968 24.1222 80.6638 23.4545 81.1425 22.602C81.6211 21.7495 81.8604 20.7789 81.8604 19.6901V0.000183105Z"
    fill="white" />
  <path
    d="M101.615 18.057V31.5534H94.1457V7.88848H101.249V12.2332H101.509C102.028 10.785 102.914 9.65 104.166 8.8283C105.419 7.99633 106.911 7.58035 108.642 7.58035C110.292 7.58035 111.723 7.95525 112.935 8.70505C114.157 9.44457 115.104 10.482 115.776 11.8172C116.458 13.1422 116.794 14.6932 116.784 16.4701V31.5534H109.314V17.9492C109.324 16.6344 108.993 15.6073 108.321 14.8678C107.659 14.1283 106.738 13.7585 105.557 13.7585C104.772 13.7585 104.08 13.9331 103.479 14.2823C102.888 14.6213 102.43 15.1092 102.104 15.746C101.789 16.3828 101.626 17.1531 101.615 18.057Z"
    fill="white" />
  <path
    d="M121.409 31.5534V7.88848H128.664V12.2024H128.909C129.337 10.6412 130.034 9.48052 131.002 8.72045C131.969 7.95011 133.094 7.56494 134.378 7.56494C134.724 7.56494 135.08 7.59062 135.447 7.64197C135.813 7.68306 136.155 7.74982 136.47 7.84227V14.3902C136.114 14.2669 135.645 14.1693 135.065 14.0974C134.495 14.0255 133.985 13.9896 133.537 13.9896C132.651 13.9896 131.852 14.1899 131.139 14.5905C130.436 14.9808 129.881 15.5303 129.474 16.239C129.077 16.9374 128.878 17.7591 128.878 18.7041V31.5534H121.409Z"
    fill="white" />
  <path
    d="M149.264 32.0002C146.809 32.0002 144.691 31.5123 142.909 30.5365C141.137 29.5505 139.772 28.1485 138.815 26.3305C137.868 24.5022 137.394 22.3298 137.394 19.8134C137.394 17.3688 137.873 15.2324 138.83 13.4041C139.788 11.5656 141.137 10.1379 142.878 9.12103C144.62 8.09391 146.672 7.58035 149.034 7.58035C150.704 7.58035 152.232 7.84226 153.617 8.36609C155.002 8.88993 156.199 9.66541 157.207 10.6925C158.215 11.7197 158.999 12.9881 159.559 14.498C160.119 15.9976 160.399 17.718 160.399 19.6593V21.5389H140.007V17.1634H153.449C153.439 16.3622 153.25 15.6484 152.884 15.0219C152.517 14.3953 152.013 13.9074 151.372 13.5582C150.74 13.1987 150.012 13.019 149.187 13.019C148.352 13.019 147.604 13.209 146.942 13.589C146.28 13.9588 145.755 14.4672 145.368 15.1143C144.981 15.7511 144.778 16.4752 144.757 17.2867V21.7392C144.757 22.7047 144.946 23.5521 145.322 24.2814C145.699 25.0003 146.234 25.5601 146.926 25.9607C147.619 26.3613 148.444 26.5616 149.401 26.5616C150.063 26.5616 150.664 26.4691 151.203 26.2842C151.743 26.0994 152.207 25.8272 152.594 25.4677C152.981 25.1082 153.271 24.6665 153.464 24.1427L160.323 24.343C160.038 25.8939 159.412 27.2446 158.444 28.395C157.487 29.5351 156.229 30.4236 154.671 31.0604C153.113 31.6869 151.31 32.0002 149.264 32.0002Z"
    fill="white" />
  <path
    d="M186.345 7.88848L178.295 31.5534H169.74L161.705 7.88848H169.572L173.895 24.1889H174.14L178.478 7.88848H186.345Z"
    fill="white" />
  <path
    d="M199.421 32.0002C196.966 32.0002 194.848 31.5123 193.066 30.5365C191.294 29.5505 189.929 28.1485 188.972 26.3305C188.025 24.5022 187.552 22.3298 187.552 19.8134C187.552 17.3688 188.03 15.2324 188.987 13.4041C189.945 11.5656 191.294 10.1379 193.035 9.12103C194.777 8.09391 196.829 7.58035 199.191 7.58035C200.862 7.58035 202.389 7.84226 203.774 8.36609C205.159 8.88993 206.356 9.66541 207.364 10.6925C208.372 11.7197 209.156 12.9881 209.716 14.498C210.276 15.9976 210.556 17.718 210.556 19.6593V21.5389H190.164V17.1634H203.606C203.596 16.3622 203.407 15.6484 203.041 15.0219C202.674 14.3953 202.17 13.9074 201.529 13.5582C200.897 13.1987 200.169 13.019 199.344 13.019C198.509 13.019 197.761 13.209 197.099 13.589C196.437 13.9588 195.912 14.4672 195.525 15.1143C195.138 15.7511 194.935 16.4752 194.914 17.2867V21.7392C194.914 22.7047 195.103 23.5521 195.479 24.2814C195.856 25.0003 196.391 25.5601 197.083 25.9607C197.776 26.3613 198.601 26.5616 199.558 26.5616C200.22 26.5616 200.821 26.4691 201.361 26.2842C201.9 26.0994 202.364 25.8272 202.751 25.4677C203.138 25.1082 203.428 24.6665 203.621 24.1427L210.48 24.343C210.195 25.8939 209.569 27.2446 208.601 28.395C207.644 29.5351 206.386 30.4236 204.828 31.0604C203.27 31.6869 201.467 32.0002 199.421 32.0002Z"
    fill="white" />
  <path
    d="M220.986 31.954C219.489 31.954 218.16 31.7023 216.999 31.199C215.848 30.6855 214.937 29.9151 214.265 28.888C213.603 27.8506 213.272 26.5513 213.272 24.9901C213.272 23.6754 213.501 22.5661 213.959 21.6622C214.417 20.7583 215.049 20.0239 215.853 19.459C216.658 18.8941 217.584 18.4678 218.633 18.1803C219.682 17.8824 220.802 17.6821 221.994 17.5794C223.328 17.4561 224.402 17.3277 225.217 17.1942C226.032 17.0504 226.622 16.8501 226.989 16.5933C227.366 16.3263 227.554 15.9514 227.554 15.4686V15.3916C227.554 14.6007 227.284 13.9896 226.745 13.5582C226.205 13.1268 225.477 12.9111 224.56 12.9111C223.572 12.9111 222.778 13.1268 222.177 13.5582C221.576 13.9896 221.194 14.5853 221.032 15.3454L214.142 15.0989C214.346 13.6609 214.87 12.377 215.716 11.2472C216.571 10.1071 217.742 9.21347 219.229 8.56638C220.726 7.90903 222.523 7.58035 224.621 7.58035C226.118 7.58035 227.498 7.76009 228.761 8.11959C230.024 8.46881 231.124 8.98237 232.06 9.66027C232.997 10.3279 233.72 11.1496 234.23 12.1254C234.749 13.1011 235.009 14.2156 235.009 15.4686V31.5534H227.982V28.2563H227.799C227.381 29.0575 226.846 29.7354 226.195 30.29C225.553 30.8447 224.794 31.2607 223.919 31.538C223.053 31.8153 222.075 31.954 220.986 31.954ZM223.292 27.0238C224.097 27.0238 224.82 26.8594 225.461 26.5308C226.113 26.2021 226.633 25.7501 227.02 25.175C227.407 24.5895 227.6 23.9116 227.6 23.1413V20.8919C227.386 21.0048 227.126 21.1076 226.821 21.2C226.526 21.2924 226.2 21.3797 225.843 21.4619C225.487 21.5441 225.12 21.616 224.743 21.6776C224.367 21.7392 224.005 21.7957 223.659 21.8471C222.956 21.9601 222.355 22.1347 221.856 22.3709C221.368 22.6071 220.991 22.9153 220.726 23.2953C220.471 23.6651 220.344 24.1068 220.344 24.6203C220.344 25.4009 220.619 25.9967 221.169 26.4075C221.729 26.8184 222.437 27.0238 223.292 27.0238Z"
    fill="white" />
  <path d="M247.046 0.000183105V31.5534H239.576V0.000183105H247.046Z" fill="white" />
  <path
    d="M262.768 32.0002C260.314 32.0002 258.196 31.5123 256.413 30.5365C254.641 29.5505 253.277 28.1485 252.32 26.3305C251.372 24.5022 250.899 22.3298 250.899 19.8134C250.899 17.3688 251.378 15.2324 252.335 13.4041C253.292 11.5656 254.641 10.1379 256.383 9.12103C258.124 8.09391 260.176 7.58035 262.539 7.58035C264.209 7.58035 265.737 7.84226 267.122 8.36609C268.506 8.88993 269.703 9.66541 270.711 10.6925C271.719 11.7197 272.504 12.9881 273.064 14.498C273.624 15.9976 273.904 17.718 273.904 19.6593V21.5389H253.511V17.1634H266.953C266.943 16.3622 266.755 15.6484 266.388 15.0219C266.022 14.3953 265.518 13.9074 264.876 13.5582C264.245 13.1987 263.516 13.019 262.692 13.019C261.857 13.019 261.108 13.209 260.446 13.589C259.784 13.9588 259.26 14.4672 258.873 15.1143C258.486 15.7511 258.282 16.4752 258.262 17.2867V21.7392C258.262 22.7047 258.45 23.5521 258.827 24.2814C259.204 25.0003 259.738 25.5601 260.431 25.9607C261.123 26.3613 261.948 26.5616 262.905 26.5616C263.567 26.5616 264.168 26.4691 264.708 26.2842C265.248 26.0994 265.711 25.8272 266.098 25.4677C266.485 25.1082 266.775 24.6665 266.969 24.1427L273.827 24.343C273.542 25.8939 272.916 27.2446 271.949 28.395C270.991 29.5351 269.734 30.4236 268.176 31.0604C266.617 31.6869 264.815 32.0002 262.768 32.0002Z"
    fill="white" />
  <path
    d="M286.288 31.8923C284.557 31.8923 282.984 31.4404 281.568 30.5365C280.153 29.6327 279.022 28.2769 278.177 26.4691C277.332 24.6614 276.909 22.4171 276.909 19.7363C276.909 16.9528 277.347 14.6624 278.223 12.8649C279.099 11.0674 280.244 9.7373 281.66 8.87452C283.086 8.01174 284.618 7.58035 286.258 7.58035C287.49 7.58035 288.544 7.79604 289.42 8.22743C290.296 8.64855 291.019 9.19293 291.589 9.86056C292.159 10.5282 292.592 11.2215 292.887 11.9405H293.04V0.000183105H300.51V31.5534H293.117V27.7171H292.887C292.572 28.4463 292.124 29.1294 291.543 29.7662C290.963 30.403 290.235 30.9166 289.359 31.3069C288.493 31.6972 287.47 31.8923 286.288 31.8923ZM288.885 26.0223C289.792 26.0223 290.566 25.7656 291.207 25.252C291.849 24.7282 292.343 23.9938 292.689 23.0488C293.035 22.1039 293.208 20.9946 293.208 19.7209C293.208 18.4268 293.035 17.3123 292.689 16.3777C292.353 15.443 291.859 14.724 291.207 14.2207C290.566 13.7174 289.792 13.4658 288.885 13.4658C287.959 13.4658 287.174 13.7225 286.533 14.2361C285.891 14.7497 285.402 15.4738 285.066 16.4085C284.741 17.3431 284.578 18.4473 284.578 19.7209C284.578 20.9946 284.746 22.1039 285.082 23.0488C285.418 23.9938 285.901 24.7282 286.533 25.252C287.174 25.7656 287.959 26.0223 288.885 26.0223Z"
    fill="white" />
  <path fill-rule="evenodd" clip-rule="evenodd"
    d="M13.9685 3.78498C11.5161 6.93648 10.0556 10.8979 10.0556 15.2004C10.0556 19.9085 11.8045 24.2082 14.6881 27.4851C13.8441 27.672 12.967 27.7706 12.0668 27.7706C5.40223 27.7706 -0.000488281 22.3679 -0.000488281 15.7033C-0.000488281 9.0387 5.40223 3.63599 12.0668 3.63599C12.7139 3.63599 13.349 3.68692 13.9685 3.78498Z"
    fill="white" />
  <rect x="16.927" y="0.618896" width="29.1626" height="29.1626" rx="14.5813" fill="#84B0FF" />
</svg>
