<svg width="325" height="36" viewBox="0 0 325 36" fill="none" xmlns="http://www.w3.org/2000/svg">
<mask id="path-1-outside-1_79_148" maskUnits="userSpaceOnUse" x="64" y="0" width="261" height="36" fill="black">
<rect fill="white" x="64" width="261" height="36"/>
<path d="M65 21.9111V3.29688H71.125V21.8154C71.125 24.0485 71.7471 25.8509 72.9912 27.2227C74.2354 28.5944 75.8703 29.2803 77.896 29.2803C79.9058 29.2803 81.5168 28.6024 82.729 27.2466C83.9572 25.8908 84.5713 24.0964 84.5713 21.8633V3.29688H90.6963V21.9111C90.6963 25.9626 89.516 29.2244 87.1553 31.6968C84.7946 34.1691 81.6763 35.4053 77.8003 35.4053C73.9562 35.4053 70.8618 34.1691 68.5171 31.6968C66.1724 29.2244 65 25.9626 65 21.9111Z"/>
<path d="M104.596 21.3848V34.7114H98.6148V11.2402H104.596V13.5371C106.112 11.5433 108.321 10.5464 111.224 10.5464C113.951 10.5464 116.12 11.4476 117.731 13.25C119.342 15.0365 120.148 17.453 120.148 20.4995V34.7114H114.167V21.3848C114.167 19.7897 113.736 18.5296 112.875 17.6045C112.013 16.6634 110.857 16.1929 109.405 16.1929C107.922 16.1929 106.75 16.6634 105.888 17.6045C105.027 18.5296 104.596 19.7897 104.596 21.3848Z"/>
<path d="M133.904 21.5762V34.7114H127.923V11.2402H133.904V13.8003C135.356 11.631 137.27 10.5464 139.647 10.5464C141.178 10.5464 142.438 10.9372 143.427 11.7188L140.915 17.4131C140.069 16.7272 139.04 16.3843 137.828 16.3843C136.632 16.3843 135.675 16.8548 134.957 17.7959C134.255 18.721 133.904 19.9811 133.904 21.5762Z"/>
<path d="M157.877 35.4053C155.5 35.4053 153.339 34.847 151.393 33.7305C149.463 32.6139 147.964 31.1146 146.895 29.2324C145.826 27.3343 145.292 25.2607 145.292 23.0117C145.292 20.7467 145.802 18.6652 146.823 16.7671C147.86 14.853 149.288 13.3377 151.106 12.2212C152.924 11.1047 154.942 10.5464 157.159 10.5464C160.509 10.5464 163.308 11.6948 165.557 13.9917C167.822 16.2726 168.955 19.1118 168.955 22.5093C168.955 23.4344 168.907 24.0884 168.811 24.4712H151.417C151.72 26.146 152.462 27.5018 153.642 28.5386C154.838 29.5754 156.33 30.0938 158.116 30.0938C160.365 30.0938 162.279 29.2803 163.858 27.6533L166.945 31.7207C166.02 32.8053 164.752 33.6906 163.141 34.3765C161.546 35.0623 159.791 35.4053 157.877 35.4053ZM157.255 15.6426C155.787 15.6426 154.551 16.1051 153.546 17.0303C152.542 17.9395 151.864 19.1597 151.513 20.6909H162.83C162.495 19.048 161.833 17.7959 160.844 16.9346C159.871 16.0732 158.675 15.6426 157.255 15.6426Z"/>
<path d="M189.841 11.2402H195.966L187.496 34.7114H179.744L171.227 11.2402H177.782L183.764 29.376L189.841 11.2402Z"/>
<path d="M211.182 35.4053C208.805 35.4053 206.644 34.847 204.698 33.7305C202.768 32.6139 201.268 31.1146 200.2 29.2324C199.131 27.3343 198.597 25.2607 198.597 23.0117C198.597 20.7467 199.107 18.6652 200.128 16.7671C201.165 14.853 202.592 13.3377 204.411 12.2212C206.229 11.1047 208.247 10.5464 210.464 10.5464C213.814 10.5464 216.613 11.6948 218.862 13.9917C221.127 16.2726 222.259 19.1118 222.259 22.5093C222.259 23.4344 222.212 24.0884 222.116 24.4712H204.722C205.025 26.146 205.767 27.5018 206.947 28.5386C208.143 29.5754 209.635 30.0938 211.421 30.0938C213.67 30.0938 215.584 29.2803 217.163 27.6533L220.25 31.7207C219.324 32.8053 218.056 33.6906 216.445 34.3765C214.85 35.0623 213.096 35.4053 211.182 35.4053ZM210.56 15.6426C209.092 15.6426 207.856 16.1051 206.851 17.0303C205.846 17.9395 205.168 19.1597 204.817 20.6909H216.134C215.799 19.048 215.137 17.7959 214.149 16.9346C213.176 16.0732 211.979 15.6426 210.56 15.6426Z"/>
<path d="M245.227 34.7114V32.1753C243.377 34.3286 240.992 35.4053 238.073 35.4053C234.915 35.4053 232.243 34.2409 230.058 31.9121C227.889 29.5674 226.804 26.6006 226.804 23.0117C226.804 19.4548 227.873 16.488 230.01 14.1113C232.148 11.7347 234.835 10.5464 238.073 10.5464C241.072 10.5464 243.457 11.5592 245.227 13.585V11.2402H251.256V34.7114H245.227ZM239.054 29.7588C240.825 29.7588 242.292 29.1048 243.457 27.7969C244.637 26.473 245.227 24.854 245.227 22.9399C245.227 21.0259 244.645 19.4229 243.481 18.1309C242.316 16.8389 240.841 16.1929 239.054 16.1929C237.252 16.1929 235.753 16.8468 234.556 18.1548C233.376 19.4468 232.786 21.0418 232.786 22.9399C232.786 24.854 233.376 26.473 234.556 27.7969C235.753 29.1048 237.252 29.7588 239.054 29.7588Z"/>
<path d="M259.247 34.7114V1H265.228V34.7114H259.247Z"/>
<path d="M284.224 35.4053C281.848 35.4053 279.686 34.847 277.74 33.7305C275.81 32.6139 274.311 31.1146 273.242 29.2324C272.174 27.3343 271.639 25.2607 271.639 23.0117C271.639 20.7467 272.15 18.6652 273.171 16.7671C274.207 14.853 275.635 13.3377 277.453 12.2212C279.272 11.1047 281.289 10.5464 283.507 10.5464C286.856 10.5464 289.655 11.6948 291.904 13.9917C294.169 16.2726 295.302 19.1118 295.302 22.5093C295.302 23.4344 295.254 24.0884 295.158 24.4712H277.764C278.067 26.146 278.809 27.5018 279.989 28.5386C281.186 29.5754 282.677 30.0938 284.464 30.0938C286.713 30.0938 288.627 29.2803 290.206 27.6533L293.292 31.7207C292.367 32.8053 291.099 33.6906 289.488 34.3765C287.893 35.0623 286.138 35.4053 284.224 35.4053ZM283.602 15.6426C282.135 15.6426 280.899 16.1051 279.894 17.0303C278.889 17.9395 278.211 19.1597 277.86 20.6909H289.177C288.842 19.048 288.18 17.7959 287.191 16.9346C286.218 16.0732 285.022 15.6426 283.602 15.6426Z"/>
<path d="M312.097 29.7588C313.867 29.7588 315.335 29.1048 316.499 27.7969C317.68 26.473 318.27 24.854 318.27 22.9399C318.27 21.0259 317.688 19.4229 316.523 18.1309C315.359 16.8389 313.883 16.1929 312.097 16.1929C310.294 16.1929 308.795 16.8468 307.599 18.1548C306.418 19.4468 305.828 21.0418 305.828 22.9399C305.828 24.854 306.418 26.473 307.599 27.7969C308.795 29.1048 310.294 29.7588 312.097 29.7588ZM318.27 1H324.299V34.7114H318.27V32.1753C316.419 34.3286 314.035 35.4053 311.116 35.4053C307.958 35.4053 305.286 34.2409 303.101 31.9121C300.931 29.5674 299.847 26.6006 299.847 23.0117C299.847 19.4548 300.916 16.488 303.053 14.1113C305.19 11.7347 307.878 10.5464 311.116 10.5464C314.115 10.5464 316.499 11.5592 318.27 13.585V1Z"/>
</mask>
<path d="M65 21.9111V3.29688H71.125V21.8154C71.125 24.0485 71.7471 25.8509 72.9912 27.2227C74.2354 28.5944 75.8703 29.2803 77.896 29.2803C79.9058 29.2803 81.5168 28.6024 82.729 27.2466C83.9572 25.8908 84.5713 24.0964 84.5713 21.8633V3.29688H90.6963V21.9111C90.6963 25.9626 89.516 29.2244 87.1553 31.6968C84.7946 34.1691 81.6763 35.4053 77.8003 35.4053C73.9562 35.4053 70.8618 34.1691 68.5171 31.6968C66.1724 29.2244 65 25.9626 65 21.9111Z" fill="#0E0E12"/>
<path d="M104.596 21.3848V34.7114H98.6148V11.2402H104.596V13.5371C106.112 11.5433 108.321 10.5464 111.224 10.5464C113.951 10.5464 116.12 11.4476 117.731 13.25C119.342 15.0365 120.148 17.453 120.148 20.4995V34.7114H114.167V21.3848C114.167 19.7897 113.736 18.5296 112.875 17.6045C112.013 16.6634 110.857 16.1929 109.405 16.1929C107.922 16.1929 106.75 16.6634 105.888 17.6045C105.027 18.5296 104.596 19.7897 104.596 21.3848Z" fill="#0E0E12"/>
<path d="M133.904 21.5762V34.7114H127.923V11.2402H133.904V13.8003C135.356 11.631 137.27 10.5464 139.647 10.5464C141.178 10.5464 142.438 10.9372 143.427 11.7188L140.915 17.4131C140.069 16.7272 139.04 16.3843 137.828 16.3843C136.632 16.3843 135.675 16.8548 134.957 17.7959C134.255 18.721 133.904 19.9811 133.904 21.5762Z" fill="#0E0E12"/>
<path d="M157.877 35.4053C155.5 35.4053 153.339 34.847 151.393 33.7305C149.463 32.6139 147.964 31.1146 146.895 29.2324C145.826 27.3343 145.292 25.2607 145.292 23.0117C145.292 20.7467 145.802 18.6652 146.823 16.7671C147.86 14.853 149.288 13.3377 151.106 12.2212C152.924 11.1047 154.942 10.5464 157.159 10.5464C160.509 10.5464 163.308 11.6948 165.557 13.9917C167.822 16.2726 168.955 19.1118 168.955 22.5093C168.955 23.4344 168.907 24.0884 168.811 24.4712H151.417C151.72 26.146 152.462 27.5018 153.642 28.5386C154.838 29.5754 156.33 30.0938 158.116 30.0938C160.365 30.0938 162.279 29.2803 163.858 27.6533L166.945 31.7207C166.02 32.8053 164.752 33.6906 163.141 34.3765C161.546 35.0623 159.791 35.4053 157.877 35.4053ZM157.255 15.6426C155.787 15.6426 154.551 16.1051 153.546 17.0303C152.542 17.9395 151.864 19.1597 151.513 20.6909H162.83C162.495 19.048 161.833 17.7959 160.844 16.9346C159.871 16.0732 158.675 15.6426 157.255 15.6426Z" fill="#0E0E12"/>
<path d="M189.841 11.2402H195.966L187.496 34.7114H179.744L171.227 11.2402H177.782L183.764 29.376L189.841 11.2402Z" fill="#0E0E12"/>
<path d="M211.182 35.4053C208.805 35.4053 206.644 34.847 204.698 33.7305C202.768 32.6139 201.268 31.1146 200.2 29.2324C199.131 27.3343 198.597 25.2607 198.597 23.0117C198.597 20.7467 199.107 18.6652 200.128 16.7671C201.165 14.853 202.592 13.3377 204.411 12.2212C206.229 11.1047 208.247 10.5464 210.464 10.5464C213.814 10.5464 216.613 11.6948 218.862 13.9917C221.127 16.2726 222.259 19.1118 222.259 22.5093C222.259 23.4344 222.212 24.0884 222.116 24.4712H204.722C205.025 26.146 205.767 27.5018 206.947 28.5386C208.143 29.5754 209.635 30.0938 211.421 30.0938C213.67 30.0938 215.584 29.2803 217.163 27.6533L220.25 31.7207C219.324 32.8053 218.056 33.6906 216.445 34.3765C214.85 35.0623 213.096 35.4053 211.182 35.4053ZM210.56 15.6426C209.092 15.6426 207.856 16.1051 206.851 17.0303C205.846 17.9395 205.168 19.1597 204.817 20.6909H216.134C215.799 19.048 215.137 17.7959 214.149 16.9346C213.176 16.0732 211.979 15.6426 210.56 15.6426Z" fill="#0E0E12"/>
<path d="M245.227 34.7114V32.1753C243.377 34.3286 240.992 35.4053 238.073 35.4053C234.915 35.4053 232.243 34.2409 230.058 31.9121C227.889 29.5674 226.804 26.6006 226.804 23.0117C226.804 19.4548 227.873 16.488 230.01 14.1113C232.148 11.7347 234.835 10.5464 238.073 10.5464C241.072 10.5464 243.457 11.5592 245.227 13.585V11.2402H251.256V34.7114H245.227ZM239.054 29.7588C240.825 29.7588 242.292 29.1048 243.457 27.7969C244.637 26.473 245.227 24.854 245.227 22.9399C245.227 21.0259 244.645 19.4229 243.481 18.1309C242.316 16.8389 240.841 16.1929 239.054 16.1929C237.252 16.1929 235.753 16.8468 234.556 18.1548C233.376 19.4468 232.786 21.0418 232.786 22.9399C232.786 24.854 233.376 26.473 234.556 27.7969C235.753 29.1048 237.252 29.7588 239.054 29.7588Z" fill="#0E0E12"/>
<path d="M259.247 34.7114V1H265.228V34.7114H259.247Z" fill="#0E0E12"/>
<path d="M284.224 35.4053C281.848 35.4053 279.686 34.847 277.74 33.7305C275.81 32.6139 274.311 31.1146 273.242 29.2324C272.174 27.3343 271.639 25.2607 271.639 23.0117C271.639 20.7467 272.15 18.6652 273.171 16.7671C274.207 14.853 275.635 13.3377 277.453 12.2212C279.272 11.1047 281.289 10.5464 283.507 10.5464C286.856 10.5464 289.655 11.6948 291.904 13.9917C294.169 16.2726 295.302 19.1118 295.302 22.5093C295.302 23.4344 295.254 24.0884 295.158 24.4712H277.764C278.067 26.146 278.809 27.5018 279.989 28.5386C281.186 29.5754 282.677 30.0938 284.464 30.0938C286.713 30.0938 288.627 29.2803 290.206 27.6533L293.292 31.7207C292.367 32.8053 291.099 33.6906 289.488 34.3765C287.893 35.0623 286.138 35.4053 284.224 35.4053ZM283.602 15.6426C282.135 15.6426 280.899 16.1051 279.894 17.0303C278.889 17.9395 278.211 19.1597 277.86 20.6909H289.177C288.842 19.048 288.18 17.7959 287.191 16.9346C286.218 16.0732 285.022 15.6426 283.602 15.6426Z" fill="#0E0E12"/>
<path d="M312.097 29.7588C313.867 29.7588 315.335 29.1048 316.499 27.7969C317.68 26.473 318.27 24.854 318.27 22.9399C318.27 21.0259 317.688 19.4229 316.523 18.1309C315.359 16.8389 313.883 16.1929 312.097 16.1929C310.294 16.1929 308.795 16.8468 307.599 18.1548C306.418 19.4468 305.828 21.0418 305.828 22.9399C305.828 24.854 306.418 26.473 307.599 27.7969C308.795 29.1048 310.294 29.7588 312.097 29.7588ZM318.27 1H324.299V34.7114H318.27V32.1753C316.419 34.3286 314.035 35.4053 311.116 35.4053C307.958 35.4053 305.286 34.2409 303.101 31.9121C300.931 29.5674 299.847 26.6006 299.847 23.0117C299.847 19.4548 300.916 16.488 303.053 14.1113C305.19 11.7347 307.878 10.5464 311.116 10.5464C314.115 10.5464 316.499 11.5592 318.27 13.585V1Z" fill="#0E0E12"/>
<path d="M65 21.9111V3.29688H71.125V21.8154C71.125 24.0485 71.7471 25.8509 72.9912 27.2227C74.2354 28.5944 75.8703 29.2803 77.896 29.2803C79.9058 29.2803 81.5168 28.6024 82.729 27.2466C83.9572 25.8908 84.5713 24.0964 84.5713 21.8633V3.29688H90.6963V21.9111C90.6963 25.9626 89.516 29.2244 87.1553 31.6968C84.7946 34.1691 81.6763 35.4053 77.8003 35.4053C73.9562 35.4053 70.8618 34.1691 68.5171 31.6968C66.1724 29.2244 65 25.9626 65 21.9111Z" stroke="#0E0E12" stroke-width="0.6" mask="url(#path-1-outside-1_79_148)"/>
<path d="M104.596 21.3848V34.7114H98.6148V11.2402H104.596V13.5371C106.112 11.5433 108.321 10.5464 111.224 10.5464C113.951 10.5464 116.12 11.4476 117.731 13.25C119.342 15.0365 120.148 17.453 120.148 20.4995V34.7114H114.167V21.3848C114.167 19.7897 113.736 18.5296 112.875 17.6045C112.013 16.6634 110.857 16.1929 109.405 16.1929C107.922 16.1929 106.75 16.6634 105.888 17.6045C105.027 18.5296 104.596 19.7897 104.596 21.3848Z" stroke="#0E0E12" stroke-width="0.6" mask="url(#path-1-outside-1_79_148)"/>
<path d="M133.904 21.5762V34.7114H127.923V11.2402H133.904V13.8003C135.356 11.631 137.27 10.5464 139.647 10.5464C141.178 10.5464 142.438 10.9372 143.427 11.7188L140.915 17.4131C140.069 16.7272 139.04 16.3843 137.828 16.3843C136.632 16.3843 135.675 16.8548 134.957 17.7959C134.255 18.721 133.904 19.9811 133.904 21.5762Z" stroke="#0E0E12" stroke-width="0.6" mask="url(#path-1-outside-1_79_148)"/>
<path d="M157.877 35.4053C155.5 35.4053 153.339 34.847 151.393 33.7305C149.463 32.6139 147.964 31.1146 146.895 29.2324C145.826 27.3343 145.292 25.2607 145.292 23.0117C145.292 20.7467 145.802 18.6652 146.823 16.7671C147.86 14.853 149.288 13.3377 151.106 12.2212C152.924 11.1047 154.942 10.5464 157.159 10.5464C160.509 10.5464 163.308 11.6948 165.557 13.9917C167.822 16.2726 168.955 19.1118 168.955 22.5093C168.955 23.4344 168.907 24.0884 168.811 24.4712H151.417C151.72 26.146 152.462 27.5018 153.642 28.5386C154.838 29.5754 156.33 30.0938 158.116 30.0938C160.365 30.0938 162.279 29.2803 163.858 27.6533L166.945 31.7207C166.02 32.8053 164.752 33.6906 163.141 34.3765C161.546 35.0623 159.791 35.4053 157.877 35.4053ZM157.255 15.6426C155.787 15.6426 154.551 16.1051 153.546 17.0303C152.542 17.9395 151.864 19.1597 151.513 20.6909H162.83C162.495 19.048 161.833 17.7959 160.844 16.9346C159.871 16.0732 158.675 15.6426 157.255 15.6426Z" stroke="#0E0E12" stroke-width="0.6" mask="url(#path-1-outside-1_79_148)"/>
<path d="M189.841 11.2402H195.966L187.496 34.7114H179.744L171.227 11.2402H177.782L183.764 29.376L189.841 11.2402Z" stroke="#0E0E12" stroke-width="0.6" mask="url(#path-1-outside-1_79_148)"/>
<path d="M211.182 35.4053C208.805 35.4053 206.644 34.847 204.698 33.7305C202.768 32.6139 201.268 31.1146 200.2 29.2324C199.131 27.3343 198.597 25.2607 198.597 23.0117C198.597 20.7467 199.107 18.6652 200.128 16.7671C201.165 14.853 202.592 13.3377 204.411 12.2212C206.229 11.1047 208.247 10.5464 210.464 10.5464C213.814 10.5464 216.613 11.6948 218.862 13.9917C221.127 16.2726 222.259 19.1118 222.259 22.5093C222.259 23.4344 222.212 24.0884 222.116 24.4712H204.722C205.025 26.146 205.767 27.5018 206.947 28.5386C208.143 29.5754 209.635 30.0938 211.421 30.0938C213.67 30.0938 215.584 29.2803 217.163 27.6533L220.25 31.7207C219.324 32.8053 218.056 33.6906 216.445 34.3765C214.85 35.0623 213.096 35.4053 211.182 35.4053ZM210.56 15.6426C209.092 15.6426 207.856 16.1051 206.851 17.0303C205.846 17.9395 205.168 19.1597 204.817 20.6909H216.134C215.799 19.048 215.137 17.7959 214.149 16.9346C213.176 16.0732 211.979 15.6426 210.56 15.6426Z" stroke="#0E0E12" stroke-width="0.6" mask="url(#path-1-outside-1_79_148)"/>
<path d="M245.227 34.7114V32.1753C243.377 34.3286 240.992 35.4053 238.073 35.4053C234.915 35.4053 232.243 34.2409 230.058 31.9121C227.889 29.5674 226.804 26.6006 226.804 23.0117C226.804 19.4548 227.873 16.488 230.01 14.1113C232.148 11.7347 234.835 10.5464 238.073 10.5464C241.072 10.5464 243.457 11.5592 245.227 13.585V11.2402H251.256V34.7114H245.227ZM239.054 29.7588C240.825 29.7588 242.292 29.1048 243.457 27.7969C244.637 26.473 245.227 24.854 245.227 22.9399C245.227 21.0259 244.645 19.4229 243.481 18.1309C242.316 16.8389 240.841 16.1929 239.054 16.1929C237.252 16.1929 235.753 16.8468 234.556 18.1548C233.376 19.4468 232.786 21.0418 232.786 22.9399C232.786 24.854 233.376 26.473 234.556 27.7969C235.753 29.1048 237.252 29.7588 239.054 29.7588Z" stroke="#0E0E12" stroke-width="0.6" mask="url(#path-1-outside-1_79_148)"/>
<path d="M259.247 34.7114V1H265.228V34.7114H259.247Z" stroke="#0E0E12" stroke-width="0.6" mask="url(#path-1-outside-1_79_148)"/>
<path d="M284.224 35.4053C281.848 35.4053 279.686 34.847 277.74 33.7305C275.81 32.6139 274.311 31.1146 273.242 29.2324C272.174 27.3343 271.639 25.2607 271.639 23.0117C271.639 20.7467 272.15 18.6652 273.171 16.7671C274.207 14.853 275.635 13.3377 277.453 12.2212C279.272 11.1047 281.289 10.5464 283.507 10.5464C286.856 10.5464 289.655 11.6948 291.904 13.9917C294.169 16.2726 295.302 19.1118 295.302 22.5093C295.302 23.4344 295.254 24.0884 295.158 24.4712H277.764C278.067 26.146 278.809 27.5018 279.989 28.5386C281.186 29.5754 282.677 30.0938 284.464 30.0938C286.713 30.0938 288.627 29.2803 290.206 27.6533L293.292 31.7207C292.367 32.8053 291.099 33.6906 289.488 34.3765C287.893 35.0623 286.138 35.4053 284.224 35.4053ZM283.602 15.6426C282.135 15.6426 280.899 16.1051 279.894 17.0303C278.889 17.9395 278.211 19.1597 277.86 20.6909H289.177C288.842 19.048 288.18 17.7959 287.191 16.9346C286.218 16.0732 285.022 15.6426 283.602 15.6426Z" stroke="#0E0E12" stroke-width="0.6" mask="url(#path-1-outside-1_79_148)"/>
<path d="M312.097 29.7588C313.867 29.7588 315.335 29.1048 316.499 27.7969C317.68 26.473 318.27 24.854 318.27 22.9399C318.27 21.0259 317.688 19.4229 316.523 18.1309C315.359 16.8389 313.883 16.1929 312.097 16.1929C310.294 16.1929 308.795 16.8468 307.599 18.1548C306.418 19.4468 305.828 21.0418 305.828 22.9399C305.828 24.854 306.418 26.473 307.599 27.7969C308.795 29.1048 310.294 29.7588 312.097 29.7588ZM318.27 1H324.299V34.7114H318.27V32.1753C316.419 34.3286 314.035 35.4053 311.116 35.4053C307.958 35.4053 305.286 34.2409 303.101 31.9121C300.931 29.5674 299.847 26.6006 299.847 23.0117C299.847 19.4548 300.916 16.488 303.053 14.1113C305.19 11.7347 307.878 10.5464 311.116 10.5464C314.115 10.5464 316.499 11.5592 318.27 13.585V1Z" stroke="#0E0E12" stroke-width="0.6" mask="url(#path-1-outside-1_79_148)"/>
<path fill-rule="evenodd" clip-rule="evenodd" d="M13.8912 9.14818C11.4524 12.2821 10 16.2214 10 20.5C10 25.1818 11.7391 29.4575 14.6066 32.7161C13.7674 32.902 12.8952 33 12 33C5.37258 33 0 27.6274 0 21C0 14.3726 5.37258 9 12 9C12.6435 9 13.2751 9.05065 13.8912 9.14818Z" fill="#0E0E12"/>
<rect x="15" y="6" width="29" height="29" rx="14.5" fill="url(#paint0_linear_79_148)"/>
<defs>
<linearGradient id="paint0_linear_79_148" x1="17" y1="23" x2="40.2921" y2="16.9378" gradientUnits="userSpaceOnUse">
<stop stop-color="#EF9EF3"/>
<stop offset="1" stop-color="#AF5DF6"/>
</linearGradient>
</defs>
</svg>
